<?xml version="1.0" standalone="no"?><!DOCTYPE svg PUBLIC "-//W3C//DTD SVG 1.1//EN" "http://www.w3.org/Graphics/SVG/1.1/DTD/svg11.dtd"><svg t="1620460040016" class="icon" viewBox="0 0 1024 1024" version="1.1" xmlns="http://www.w3.org/2000/svg" p-id="5297" xmlns:xlink="http://www.w3.org/1999/xlink" width="32" height="32"><defs><style type="text/css"></style></defs><path d="M512 162c-192.988 0-350 157.012-350 350s157.012 350 350 350 350-157.012 350-350-157.012-350-350-350z m128.185 411.418C641.391 552.986 642 532.4 642 512s-0.609-40.986-1.815-61.418C746.005 465.701 802 496.924 802 512s-55.995 46.299-161.815 61.418zM512 802c-15.075 0-46.3-55.996-61.418-161.816C471.014 641.39 491.6 642 512 642s40.986-0.61 61.418-1.816C558.3 746.004 527.075 802 512 802z m0-220c-24.003 0-46.58-0.815-67.735-2.266C442.815 558.58 442 536.004 442 512s0.815-46.58 2.265-67.734C465.42 442.815 487.997 442 512 442s46.58 0.815 67.735 2.266C581.185 465.42 582 487.996 582 512s-0.815 46.58-2.265 67.734C558.58 581.185 536.003 582 512 582z m-290-70c0-15.076 55.996-46.299 161.815-61.418C382.609 471.014 382 491.6 382 512s0.609 40.986 1.815 61.418C277.996 558.299 222 527.076 222 512z m290-290c15.075 0 46.3 55.996 61.418 161.816C552.986 382.61 532.4 382 512 382s-40.986 0.61-61.418 1.816C465.7 277.996 496.925 222 512 222z m277.791 206.846c-40.939-19.053-95.741-32.09-155.165-39.473-7.382-59.424-20.419-114.224-39.47-155.164 93.14 27.933 166.701 101.495 194.635 194.637zM428.844 234.209c-19.051 40.94-32.088 95.74-39.47 155.164-59.424 7.383-114.225 20.42-155.165 39.473 27.934-93.142 101.495-166.704 194.635-194.637zM234.209 595.154c40.939 19.053 95.741 32.09 155.165 39.473 7.382 59.424 20.419 114.224 39.47 155.164-93.14-27.933-166.701-101.495-194.635-194.637z m360.947 194.637c19.051-40.94 32.088-95.74 39.47-155.164 59.424-7.383 114.225-20.42 155.165-39.473-27.934 93.142-101.495 166.704-194.635 194.637z" p-id="5298" fill="#ffffff"></path></svg>