<?xml version="1.0" standalone="no"?><!DOCTYPE svg PUBLIC "-//W3C//DTD SVG 1.1//EN" "http://www.w3.org/Graphics/SVG/1.1/DTD/svg11.dtd"><svg t="1620461167584" class="icon" viewBox="0 0 1024 1024" version="1.1" xmlns="http://www.w3.org/2000/svg" p-id="755" xmlns:xlink="http://www.w3.org/1999/xlink" width="32" height="32"><defs><style type="text/css"></style></defs><path d="M734.00000029 599.00000029c-9.74999971 9.37500029-14.24999971 23.24999971-12.00000058 36.37499942l33.37500058 184.5c2.62500029 15.75-3.75000029 31.5-16.875 40.5a41.24999971 41.24999971 0 0 1-43.875 3.00000058l-166.12500058-86.625a42.59999971 42.59999971 0 0 0-18.74999971-4.87500029h-10.125a30.41250029 30.41250029 0 0 0-10.125 3.375l-166.12499971 87.00000029c-8.25000029 4.12499971-17.62499971 5.625-26.62500058 4.12499971a41.625 41.625 0 0 1-33.37499971-47.62500029l33.37499971-184.5a42.00000029 42.00000029 0 0 0-11.99999971-36.74999971l-135.37500029-131.24999971c-11.25-11.25-15.37499971-27.37500029-10.125-42.37500058 4.87500029-14.625 17.62499971-25.49999971 33.37500058-28.125l186.37499971-27c14.24999971-1.50000029 26.62499971-10.125 33.00000029-22.87499942l82.125-168.37500058c1.87499971-3.75000029 4.5-7.12500029 7.49999971-10.125l3.375-2.62499942c1.50000029-1.87499971 3.75000029-3.375 6.00000029-4.87500029l4.12499971-1.50000029 6.37499971-2.62499942h15.75c14.24999971 1.50000029 26.62499971 10.125 33.00000029 22.5l83.25 167.625c6.00000029 12.375 17.62499971 20.62500029 31.12499971 22.87499942l186.37500058 27c15.75 2.25 28.87499971 13.12499971 34.12499942 28.125 4.87500029 15.00000029 0.74999971 31.5-10.87499971 42.37500058l-140.24999971 132.75z" fill="#ffffff" p-id="756"></path></svg>