<?xml version="1.0" standalone="no"?><!DOCTYPE svg PUBLIC "-//W3C//DTD SVG 1.1//EN" "http://www.w3.org/Graphics/SVG/1.1/DTD/svg11.dtd"><svg t="1620461086249" class="icon" viewBox="0 0 1024 1024" version="1.1" xmlns="http://www.w3.org/2000/svg" p-id="755" xmlns:xlink="http://www.w3.org/1999/xlink" width="32" height="32"><defs><style type="text/css"></style></defs><path d="M800.03775229 443.36027806L616.26150308 443.36027806c71.21115229-263.00049405-49.06507393-276.43311507-49.06507393-276.43311508-50.97803476 0-40.41011158 40.30972058-44.26528072 47.02958834 0 128.61894905-136.61227935 229.40352674-136.61227936 229.40352674l0 364.74155253c0 36.00318741 49.06507393 48.97021617 68.31246318 48.97021617l276.12324706 0c25.98701927 0 47.14895137-68.15120567 47.14895136-68.15120567 68.31325417-232.28798762 68.31325417-301.40278782 68.31325418-301.40278782C846.2175751 439.52566141 800.03775229 443.36027806 800.03775229 443.36027806L800.03775229 443.36027806 800.03775229 443.36027806zM800.03775229 443.36027806" p-id="756" fill="#ffffff"></path><path d="M310.90236488 443.48122157L200.8581073 443.48122157c-22.72629064 0-23.07647341 22.32156487-23.0764734 22.32156487l22.72629063 367.85525267c0 23.41321741 23.45353217 23.41321741 23.45353217 23.41321741L319.20556319 857.07125652c19.84183053 0 19.66634403-15.4878681 19.66634402-15.4878681L338.87190721 471.37645865C338.87190721 443.12392429 310.90236488 443.48122157 310.90236488 443.48122157L310.90236488 443.48122157 310.90236488 443.48122157zM310.90236488 443.48122157" p-id="757" fill="#ffffff"></path></svg>